Coordinates
version=1
nRows=12
nColumns=24
inDegrees=yes

Units are S.I. units (second, meters, Newtons, ...)
Angles are in degrees.

endheader
time	pelvis_tilt	pelvis_list	pelvis_rotation	pelvis_tx	pelvis_ty	pelvis_tz	hip_flexion_r	hip_adduction_r	hip_rotation_r	knee_angle_r	ankle_angle_r	subtalar_angle_r	mtp_angle_r	hip_flexion_l	hip_adduction_l	hip_rotation_l	knee_angle_l	ankle_angle_l	subtalar_angle_l	mtp_angle_l	lumbar_extension	lumbar_bending	lumbar_rotation
      5.06000000	     -0.61587234	      2.92395719	      0.33871078	      1.19693728	      0.95203135	     -0.19476130	     27.93981651	     -5.04421381	     -5.96732090	    -47.52772289	      5.91980758	     -3.11175974	      0.00000000	      0.75640112	      9.54745465	      6.73675392	    -13.68930741	     15.34176837	    -15.29415611	      0.00000000	    -25.20868737	     -5.91547681	      0.42814996
      5.07000000	     -0.56846424	      3.06710752	      0.73815208	      1.21045405	      0.95157098	     -0.19487176	     28.05825103	     -5.19760012	     -6.71220774	    -43.66674661	      6.17546168	     -2.47325648	      0.00000000	     -0.79951975	      9.62467148	      7.02209773	    -12.56581862	     15.41792610	    -15.37539112	      0.00000000	    -25.37459178	     -5.94947292	     -0.08200136
      5.08000000	     -0.45196897	      3.27461290	      1.13162046	      1.22418172	      0.95090098	     -0.19489484	     27.93127942	     -5.38426623	     -7.45359367	    -39.54905108	      6.32709517	     -1.66533794	      0.00000000	     -2.43945871	      9.74137707	      7.19457756	    -11.45269668	     15.47113041	    -15.37712980	      0.00000000	    -25.60202114	     -6.06324508	     -0.62936138
      5.09000000	     -0.28811803	      3.53255547	      1.52053554	      1.23813683	      0.95000384	     -0.19481880	     27.58607136	     -5.56904079	     -8.14389312	    -35.20445024	      6.39695459	     -0.75776928	      0.00000000	     -4.12376446	      9.88052951	      7.28371238	    -10.39270858	     15.51134841	    -15.26923734	      0.00000000	    -25.86227755	     -6.24240471	     -1.16933467
      5.10000000	     -0.14670524	      3.85538569	      1.92334919	      1.25232460	      0.94874620	     -0.19472635	     27.13718010	     -5.78735027	     -8.81106545	    -30.73072089	      6.43608547	      0.22707213	      0.00000000	     -5.77834440	     10.05875905	      7.37564112	     -9.39705396	     15.63084169	    -14.99769147	      0.00000000	    -26.06452415	     -6.48918084	     -1.77822872
      5.11000000	      0.03495863	      4.19749582	      2.31442909	      1.26675681	      0.94728830	     -0.19456331	     26.52397116	     -5.96674913	     -9.41595195	    -26.15093554	      6.42404456	      1.14503716	      0.00000000	     -7.44663696	     10.22617059	      7.43723728	     -8.50425897	     15.76001756	    -14.62815957	      0.00000000	    -26.28006925	     -6.76151647	     -2.36053331
      5.12000000	      0.20040740	      4.55955475	      2.70729742	      1.28139001	      0.94557723	     -0.19435468	     25.85052897	     -6.12300474	     -9.96205144	    -21.57022819	      6.37903457	      1.98405520	      0.00000000	     -9.04600509	     10.38467429	      7.50991946	     -7.75392852	     15.92411729	    -14.14740232	      0.00000000	    -26.45082792	     -7.05554408	     -2.95322909
      5.13000000	      0.36318062	      4.91617132	      3.09305342	      1.29620913	      0.94368693	     -0.19409403	     25.13195307	     -6.23106535	    -10.39056178	    -17.07954903	      6.27893009	      2.72937432	      0.00000000	    -10.57433461	     10.50781775	      7.62505263	     -7.17270617	     16.12259233	    -13.57027890	      0.00000000	    -26.59265668	     -7.34059031	     -3.55326671
      5.14000000	      0.52202124	      5.28097322	      3.47883811	      1.31115192	      0.94165127	     -0.19376542	     24.39628932	     -6.31593489	    -10.62517544	    -12.78915366	      6.12579701	      3.37211342	      0.00000000	    -12.01106225	     10.60680589	      7.82558803	     -6.79345380	     16.36385017	    -12.89175238	      0.00000000	    -26.72150997	     -7.63862928	     -4.15976327
      5.15000000	      0.65715506	      5.66289217	      3.89316080	      1.32621526	      0.93949348	     -0.19341010	     23.67522038	     -6.41457130	    -10.62362308	     -8.81054629	      5.94594359	      3.87002231	      0.00000000	    -13.31453027	     10.69359148	      8.05992421	     -6.65186806	     16.61859904	    -12.13493428	      0.00000000	    -26.81406002	     -7.95129950	     -4.77318396
      5.16000000	      0.79136351	      6.04104394	      4.32523751	      1.34139459	      0.93731087	     -0.19306536	     22.96735581	     -6.53218845	    -10.34471780	     -5.26691424	      5.73788187	      4.27111456	      0.00000000	    -14.50700775	     10.74977473	      8.30052576	     -6.74261956	     16.87145610	    -11.29086721	      0.00000000	    -26.90157072	     -8.24700181	     -5.37696224
      5.17000000	      0.95807467	      6.39762260	      4.75727184	      1.35669030	      0.93520904	     -0.19273825	     22.27693075	     -6.67000849	     -9.82517129	     -2.29645767	      5.54544255	      4.61997761	      0.00000000	    -15.62796569	     10.75865450	      8.49862779	     -7.04469529	     17.10123995	    -10.33828197	      0.00000000	    -27.02074686	     -8.50791180	     -5.94023242
